<mxfile host="65bd71144e">
    <diagram id="Fo4rl5hgtW8sDvK_fd4T" name="Page-1">
        <mxGraphModel dx="1536" dy="787" grid="1" gridSize="10" guides="1" tooltips="1" connect="1" arrows="1" fold="1" page="0" pageScale="1" pageWidth="827" pageHeight="1169" math="0" shadow="0">
            <root>
                <mxCell id="0"/>
                <mxCell id="1" parent="0"/>
                <mxCell id="2" value="Process A: &lt;br&gt;Cutting" style="swimlane;html=1;startSize=40;horizontal=0;childLayout=flowLayout;flowOrientation=west;resizable=0;interRankCellSpacing=50;containerType=tree;fontSize=12;" parent="1" vertex="1">
                    <mxGeometry x="80" y="230" width="480" height="80" as="geometry"/>
                </mxCell>
                <mxCell id="3" value="Check Coolant Availability" style="whiteSpace=wrap;html=1;" parent="2" vertex="1">
                    <mxGeometry x="60" y="20" width="100" height="40" as="geometry"/>
                </mxCell>
                <mxCell id="4" value="Cut Material" style="whiteSpace=wrap;html=1;" parent="2" vertex="1">
                    <mxGeometry x="210" y="20" width="100" height="40" as="geometry"/>
                </mxCell>
                <mxCell id="5" value="" style="html=1;rounded=1;curved=0;sourcePerimeterSpacing=0;targetPerimeterSpacing=0;startSize=6;endSize=6;noEdgeStyle=1;orthogonal=1;" parent="2" source="3" target="4" edge="1">
                    <mxGeometry relative="1" as="geometry">
                        <Array as="points">
                            <mxPoint x="172" y="40"/>
                            <mxPoint x="198" y="40"/>
                        </Array>
                    </mxGeometry>
                </mxCell>
                <mxCell id="11" value="" style="html=1;rounded=1;curved=0;sourcePerimeterSpacing=0;targetPerimeterSpacing=0;startSize=6;endSize=6;noEdgeStyle=1;orthogonal=1;" parent="2" source="4" target="12" edge="1">
                    <mxGeometry relative="1" as="geometry">
                        <mxPoint x="2030" y="1025.5" as="sourcePoint"/>
                        <Array as="points">
                            <mxPoint x="322" y="40"/>
                            <mxPoint x="348" y="40"/>
                        </Array>
                    </mxGeometry>
                </mxCell>
                <mxCell id="12" value="Update Coolant Usage" style="whiteSpace=wrap;html=1;" parent="2" vertex="1">
                    <mxGeometry x="360" y="20" width="100" height="40" as="geometry"/>
                </mxCell>
                <mxCell id="15" value="Process B: &lt;br&gt;Polishing" style="swimlane;html=1;startSize=40;horizontal=0;childLayout=flowLayout;flowOrientation=west;resizable=0;interRankCellSpacing=50;containerType=tree;fontSize=12;" parent="1" vertex="1">
                    <mxGeometry x="70" y="410" width="480" height="80" as="geometry"/>
                </mxCell>
                <mxCell id="16" value="Check Coolant Availability" style="whiteSpace=wrap;html=1;" parent="15" vertex="1">
                    <mxGeometry x="60" y="20" width="100" height="40" as="geometry"/>
                </mxCell>
                <mxCell id="17" value="Polish Material" style="whiteSpace=wrap;html=1;" parent="15" vertex="1">
                    <mxGeometry x="210" y="20" width="100" height="40" as="geometry"/>
                </mxCell>
                <mxCell id="18" value="" style="html=1;rounded=1;curved=0;sourcePerimeterSpacing=0;targetPerimeterSpacing=0;startSize=6;endSize=6;noEdgeStyle=1;orthogonal=1;" parent="15" source="16" target="17" edge="1">
                    <mxGeometry relative="1" as="geometry">
                        <Array as="points">
                            <mxPoint x="172" y="40"/>
                            <mxPoint x="198" y="40"/>
                        </Array>
                    </mxGeometry>
                </mxCell>
                <mxCell id="19" value="" style="html=1;rounded=1;curved=0;sourcePerimeterSpacing=0;targetPerimeterSpacing=0;startSize=6;endSize=6;noEdgeStyle=1;orthogonal=1;" parent="15" source="17" target="20" edge="1">
                    <mxGeometry relative="1" as="geometry">
                        <mxPoint x="2100" y="1086.5" as="sourcePoint"/>
                        <Array as="points">
                            <mxPoint x="322" y="40"/>
                            <mxPoint x="348" y="40"/>
                        </Array>
                    </mxGeometry>
                </mxCell>
                <mxCell id="20" value="Update Coolant Usage" style="whiteSpace=wrap;html=1;" parent="15" vertex="1">
                    <mxGeometry x="360" y="20" width="100" height="40" as="geometry"/>
                </mxCell>
                <mxCell id="27" style="edgeStyle=none;html=1;exitX=0.033;exitY=0.1;exitDx=0;exitDy=0;entryX=0.5;entryY=1;entryDx=0;entryDy=0;dashed=1;startArrow=oval;startFill=0;endArrow=block;endFill=0;exitPerimeter=0;" parent="1" source="47" target="3" edge="1">
                    <mxGeometry relative="1" as="geometry">
                        <mxPoint x="310" y="330" as="sourcePoint"/>
                        <mxPoint x="255" y="390" as="targetPoint"/>
                    </mxGeometry>
                </mxCell>
                <mxCell id="28" style="edgeStyle=none;html=1;entryX=0.5;entryY=0;entryDx=0;entryDy=0;dashed=1;startArrow=oval;startFill=0;endArrow=block;endFill=0;exitX=-0.067;exitY=0.883;exitDx=0;exitDy=0;exitPerimeter=0;" parent="1" source="47" target="16" edge="1">
                    <mxGeometry relative="1" as="geometry">
                        <mxPoint x="310" y="390" as="sourcePoint"/>
                        <mxPoint x="170" y="300" as="targetPoint"/>
                    </mxGeometry>
                </mxCell>
                <mxCell id="29" style="edgeStyle=none;html=1;exitX=0.5;exitY=1;exitDx=0;exitDy=0;dashed=1;startArrow=oval;startFill=0;endArrow=block;endFill=0;entryX=0.917;entryY=0.183;entryDx=0;entryDy=0;entryPerimeter=0;" parent="1" source="12" target="47" edge="1">
                    <mxGeometry relative="1" as="geometry">
                        <mxPoint x="325" y="340" as="sourcePoint"/>
                        <mxPoint x="425" y="345" as="targetPoint"/>
                    </mxGeometry>
                </mxCell>
                <mxCell id="46" value="" style="shape=note;whiteSpace=wrap;html=1;backgroundOutline=1;darkOpacity=0.05;size=16;" vertex="1" parent="1">
                    <mxGeometry x="450" y="340" width="40" height="50" as="geometry"/>
                </mxCell>
                <mxCell id="47" value="Coolant Management" style="shape=datastore;whiteSpace=wrap;html=1;" vertex="1" parent="1">
                    <mxGeometry x="320" y="335" width="60" height="60" as="geometry"/>
                </mxCell>
                <mxCell id="48" style="edgeStyle=none;html=1;entryX=1;entryY=0.883;entryDx=0;entryDy=0;dashed=1;startArrow=oval;startFill=0;endArrow=block;endFill=0;exitX=0;exitY=0;exitDx=0;exitDy=0;entryPerimeter=0;" edge="1" parent="1" source="20" target="47">
                    <mxGeometry relative="1" as="geometry">
                        <mxPoint x="325.98" y="397.98" as="sourcePoint"/>
                        <mxPoint x="190" y="440" as="targetPoint"/>
                    </mxGeometry>
                </mxCell>
                <mxCell id="49" style="edgeStyle=none;html=1;entryX=1;entryY=0.5;entryDx=0;entryDy=0;dashed=1;startArrow=oval;startFill=0;endArrow=block;endFill=0;exitX=0;exitY=0.5;exitDx=0;exitDy=0;exitPerimeter=0;" edge="1" parent="1" source="46" target="47">
                    <mxGeometry relative="1" as="geometry">
                        <mxPoint x="440" y="440" as="sourcePoint"/>
                        <mxPoint x="390" y="397.98" as="targetPoint"/>
                    </mxGeometry>
                </mxCell>
            </root>
        </mxGraphModel>
    </diagram>
</mxfile>